{
  "title": "Star Trek Beyond (2016) HDRip XviD-MAX",
  "uid": 15912391,
  "size": 1437149773,
  "categoryP": "video",
  "categoryS": "movies",
  "magnet": "?xt=urn:btih:985fb0a541bb8b71530ad7a5ba6e2beb9b92f9d0&amp;dn=Star+Trek+Beyond+%282016%29+HDRip+XviD-MAX&amp;tr=udp%3A%2F%2Ftracker.leechers-paradise.org%3A6969&amp;tr=udp%3A%2F%2Fzer0day.ch%3A1337&amp;tr=udp%3A%2F%2Fopen.demonii.com%3A1337&amp;tr=udp%3A%2F%2Ftracker.coppersurfer.tk%3A6969&amp;tr=udp%3A%2F%2Fexodus.desync.com%3A6969",
  "seeders": 154,
  "leechers": 146,
  "uploader": "extremezone",
  "files": 4,
  "time": 1475122097,
  "description": "http://extraimago.com/images/2016/09/29/6dcb7c43c18e533cfd6d367a839ff00c.jpg\r\n\r\nScreens:\r\n \nhttp://extraimago.com/images/2016/09/29/5854e04c68dbb9f39e4a9d74dadb0e16.jpg \nhttp://extraimago.com/images/2016/09/29/1d628a76d9a0a03f38540fd9d66a4fa6.jpg \nhttp://extraimago.com/images/2016/09/29/70f9a84177b4dd6fd8046bb64b4ada92.jpg \nhttp://extraimago.com/images/2016/09/29/c39a74f9fc54614234e0833cb1403440.jpg\r\n\r\nScreenCaps:\r\n \nhttp://extraimago.com/images/2016/09/29/a6eb75db97641cb8122370b4c77d6664.jpg\r\n\r\nStar Trek Beyond (2016) HDRip XviD-MAX\r\nFormat                                   : AVI\r\nFormat/Info                              : Audio Video Interleave\r\nFormat profile                           : OpenDML\r\nFormat settings                          : rec\r\nFile size                                : 1.33 GiB\r\nDuration                                 : 2h 2mn\r\nOverall bit rate                         : 1 559 Kbps\r\nWriting application                      : VirtualDubMod 1.5.10.2 (build 2542/release)\r\nWriting library                          : VirtualDubMod build 2542/release\r\nOriginal source form                     : MAX TORRENTZ\r\nCopyright                                : SIGISMUNT\r\n\r\nVideo\r\nID                                       : 0\r\nFormat                                   : MPEG-4 Visual\r\nFormat profile                           : Advanced   \r\nFormat settings, BVOP                    : 2\r\nFormat settings, QPel                    : No\r\nFormat settings, GMC                     : No warppoints\r\nFormat settings, Matrix                  : Default (H.263)\r\nMuxing mode                              : Packed bitstream\r\nCodec ID                                 : XVID\r\nCodec ID/Hint                            : XviD\r\nDuration                                 : 2h 2mn\r\nBit rate                                 : 1 234 Kbps\r\nWidth                                    : 720 pixels\r\nHeight                                   : 304 pixels\r\nDisplay aspect ratio                     : 2.35:1\r\nFrame rate                               : 23.976 fps\r\nColor space                              : YUV\r\nChroma subsampling                       : 4:2:0\r\nBit depth                                : 8 bits\r\nScan type                                : Progressive\r\nCompression mode                         : Lossy\r\nBits/(Pixel*Frame)                       : 0.235\r\nStream size                              : 1.05 GiB (79%)\r\nWriting library                          : XviD 66\r\n\r\nAudio\r\nID                                       : 1\r\nFormat                                   : AC-3\r\nFormat/Info                              : Audio Coding 3\r\nMode extension                           : CM (complete main)\r\nFormat settings, Endianness              : Big\r\nCodec ID                                 : 2000\r\nDuration                                 : 2h 2mn\r\nBit rate mode                            : Constant\r\nBit rate                                 : 320 Kbps\r\nChannel(s)                               : 6 channels\r\nChannel positions                        : Front: L C R, Side: L R, LFE\r\nSampling rate                            : 48.0 KHz\r\nBit depth                                : 16 bits\r\nCompression mode                         : Lossy\r\nStream size                              : 280 MiB (21%)\r\nAlignment                                : Aligned on interleaves\r\nInterleave, duration                     : 64 ms (1.53 video frames)\r\nInterleave, preload duration             : 192 ms",
  "parsed": {
    "xt": "urn:btih:985fb0a541bb8b71530ad7a5ba6e2beb9b92f9d0",
    "dn": "Star Trek Beyond (2016) HDRip XviD-MAX",
    "tr": [
      "udp://exodus.desync.com:6969",
      "udp://open.demonii.com:1337",
      "udp://tracker.coppersurfer.tk:6969",
      "udp://tracker.leechers-paradise.org:6969",
      "udp://zer0day.ch:1337"
    ],
    "infoHash": "985fb0a541bb8b71530ad7a5ba6e2beb9b92f9d0",
    "infoHashBuffer": {
      "type": "Buffer",
      "data": [
        152,
        95,
        176,
        165,
        65,
        187,
        139,
        113,
        83,
        10,
        215,
        165,
        186,
        110,
        43,
        235,
        155,
        146,
        249,
        208
      ]
    },
    "name": "Star Trek Beyond (2016) HDRip XviD-MAX",
    "announce": [
      "udp://exodus.desync.com:6969",
      "udp://open.demonii.com:1337",
      "udp://tracker.coppersurfer.tk:6969",
      "udp://tracker.leechers-paradise.org:6969",
      "udp://zer0day.ch:1337"
    ],
    "urlList": []
  },
  "previous": 300,
  "peers": 64,
  "last_updated": "2016-12-25T08:39:04.308Z"
}